<svg xmlns="http://www.w3.org/2000/svg" xml:space="preserve" viewBox="0 0 60.000003 60.000098">
  <g transform="translate(-1.9999982 -1.9999504)">
    <path d="M32 13.333303A28.000045 18.666696 0 0 0 3.9999553 32 28.000045 18.666696 0 0 0 32 50.666696 28.000045 18.666696 0 0 0 60.000044 32 28.000045 18.666696 0 0 0 32 13.333303Zm0 4.148155a21.777813 12.962984 0 0 1 21.777812 12.962984A21.777813 12.962984 0 0 1 32 43.407427a21.777813 12.962984 0 0 1-21.777813-12.962985A21.777813 12.962984 0 0 1 32 17.481458Z"/>
    <path d="M32 19.555536a18.666696 10.888906 0 0 0-18.666697 10.888906A18.666696 10.888906 0 0 0 32 41.333348a18.666696 10.888906 0 0 0 18.666696-10.888906A18.666696 10.888906 0 0 0 32 19.555536Zm0 2.074077a14.518542 7.2592707 0 0 1 14.518543 7.259271A14.518542 7.2592707 0 0 1 32 36.148153a14.518542 7.2592707 0 0 1-14.518542-7.259269A14.518542 7.2592707 0 0 1 32 21.629613Z"/>
    <ellipse cx="31.999998" cy="28.888887" rx="9.3333483" ry="5.1851931"/>
  </g>
</svg>
