<svg xmlns="http://www.w3.org/2000/svg" xml:space="preserve" viewBox="0 0 60.000003 60.000098">
  <path d="M2.0000787 5.5004985V40.498113L30.003054 54.4996l27.99687-14.001487V5.5004985ZM30.003054 10.664081a22.76605 15.177366 0 0 1 22.766149 15.179468 22.76605 15.177366 0 0 1-22.766149 15.179468A22.76605 15.177366 0 0 1 7.2369034 25.843549 22.76605 15.177366 0 0 1 30.003054 10.664081Zm0 3.37525a17.706928 10.539838 0 0 0-17.706328 10.540788 17.706928 10.539838 0 0 0 17.706328 10.540789A17.706928 10.539838 0 0 0 47.70938 24.580119a17.706928 10.539838 0 0 0-17.706326-10.540788Zm0 1.684573a15.177366 8.8534637 0 0 1 15.179467 8.856215 15.177366 8.8534637 0 0 1-15.179467 8.850112 15.177366 8.8534637 0 0 1-15.179469-8.850112 15.177366 8.8534637 0 0 1 15.179469-8.856215zm0 1.690676a11.804618 5.902309 0 0 0-11.804218 5.902109 11.804618 5.902309 0 0 0 11.804218 5.902109 11.804618 5.902309 0 0 0 11.804217-5.902109 11.804618 5.902309 0 0 0-11.804217-5.902109Zm0 1.684573a7.5886828 4.2159349 0 0 1 7.586682 4.217536 7.5886828 4.2159349 0 0 1-7.586682 4.211433 7.5886828 4.2159349 0 0 1-7.586682-4.211433 7.5886828 4.2159349 0 0 1 7.586682-4.217536z"/>
</svg>
