<svg xmlns="http://www.w3.org/2000/svg" xml:space="preserve" viewBox="0 0 60.000003 60.000098">
  <path d="m40.952777 9.9987965 3.796394 3.9978085H22.941275c-1.445159-1.44865-3.623677-3.634871-3.985602-3.9978085zm-28.997848 0 3.997809 3.9978085H5.7476436l-3.796393-3.9978085Zm35.650692 7.0007445 3.796392 3.997809H29.935914c-1.956628-1.958496-2.115858-2.112128-3.997808-3.997809zm-28.649948 0 3.997809 3.997809H12.400486l-3.7963934-3.997809Zm35.296686 7.000743 3.796393 3.997809H36.948865c-.697131-.689755-2.371342-2.366403-4.003913-3.997809Zm-28.295943 0 3.997808 3.997809H19.047225l-3.796392-3.997809zm32.092336 8.001722c-.686319.720293-2.208802 2.317979-3.8086 3.997809H32.969366c1.63107-1.632235 3.309607-3.308328 3.991706-3.997809zm-28.094528 0-3.997808 3.997809H15.250833l3.796392-3.997809zm21.429478 6.99464c-1.885381 1.980915-2.066326 2.183199-3.796392 4.003912H25.968623c1.892682-1.888944 2.046502-2.042264 4.010015-4.003912zm-28.424117 0-4.003912 4.003912H8.6040926l3.8024974-4.003912Zm21.789586 7.000743c-1.214142 1.282083-3.808405 4.003913-3.796394 4.003913H18.955673c.363893-.362883 2.554266-2.551664 4.010016-4.003913zm-28.790329 0-4.003913 4.003913H1.9512506l3.802496-4.003913z"/>
</svg>
