<?xml version="1.0" encoding="UTF-8" standalone="no"?>
<!DOCTYPE svg PUBLIC "-//W3C//DTD SVG 20010904//EN"
              "http://www.w3.org/TR/2001/REC-SVG-20010904/DTD/svg10.dtd">

<svg xmlns="http://www.w3.org/2000/svg"
     width="0.213333in" height="0.213333in"
     viewBox="0 0 64 64">
  <path id="Unnamed copy #2"
        fill="none" stroke="black" stroke-width="1"
        d="M 32.00,54.00
           C 32.00,54.00 28.00,40.00 28.00,40.00
             28.00,40.00 11.00,48.00 11.00,48.00
             11.00,48.00 21.00,35.00 21.00,35.00
             21.00,35.00 2.00,32.00 2.00,32.00M 32.00,10.00
           C 32.00,10.00 28.00,24.00 28.00,24.00
             28.00,24.00 11.00,16.00 11.00,16.00
             11.00,16.00 21.00,29.00 21.00,29.00
             21.00,29.00 2.00,32.00 2.00,32.00M 32.00,54.00
           C 32.00,54.00 36.00,40.00 36.00,40.00
             36.00,40.00 53.00,48.00 53.00,48.00
             53.00,48.00 43.00,35.00 43.00,35.00
             43.00,35.00 62.00,32.00 62.00,32.00M 32.00,10.00
           C 32.00,10.00 36.00,24.00 36.00,24.00
             36.00,24.00 53.00,16.00 53.00,16.00
             53.00,16.00 43.00,29.00 43.00,29.00
             43.00,29.00 62.00,32.00 62.00,32.00" />
</svg>
