<?xml version="1.0" encoding="UTF-8" standalone="no"?>
<svg
   width="0.213333in"
   height="0.213333in"
   viewBox="0 0 64 64"
   version="1.1"
   id="svg1"
   sodipodi:docname="Defenses.svg"
   xml:space="preserve"
   inkscape:version="1.3.2 (091e20e, 2023-11-25, custom)"
   xmlns:inkscape="http://www.inkscape.org/namespaces/inkscape"
   xmlns:sodipodi="http://sodipodi.sourceforge.net/DTD/sodipodi-0.dtd"
   xmlns="http://www.w3.org/2000/svg"
   xmlns:svg="http://www.w3.org/2000/svg"><defs
     id="defs1" /><sodipodi:namedview
     id="namedview1"
     pagecolor="#ffffff"
     bordercolor="#000000"
     borderopacity="0.25"
     inkscape:showpageshadow="2"
     inkscape:pageopacity="0.0"
     inkscape:pagecheckerboard="0"
     inkscape:deskcolor="#d1d1d1"
     inkscape:document-units="in"
     inkscape:zoom="42.157165"
     inkscape:cx="9.8559758"
     inkscape:cy="10.662482"
     inkscape:window-width="2560"
     inkscape:window-height="1417"
     inkscape:window-x="-8"
     inkscape:window-y="-8"
     inkscape:window-maximized="1"
     inkscape:current-layer="g10" /><g
     inkscape:groupmode="layer"
     id="layer1"
     inkscape:label="Originals"
     style="display:none"><path
       id="Unnamed copy #1"
       fill="none"
       stroke="black"
       stroke-width="1"
       d="M 32,56 60,42 V 7 H 4 v 35 l 28,14"
       style="fill:#000000;fill-opacity:1;stroke:none"
       sodipodi:nodetypes="cccccc"
       inkscape:label="Shield" /><path
       id="Unnamed copy #2"
       fill="none"
       stroke="black"
       stroke-width="0.856437"
       d="M 5.7499581,28.285648 22.374985,30.80045 13.624971,41.697925 28.499995,34.991786 32,46.727528 35.500006,34.991786 50.37503,41.697925 41.625015,30.80045 58.250042,28.285648 m 0,0 L 41.625015,25.770846 50.37503,14.873371 35.500006,21.57951 32,9.8437658 28.499995,21.57951 13.624971,14.873371 22.374985,25.770846 5.749958,28.285648"
       style="display:none;fill:#ffffff;fill-opacity:1;stroke:none"
       sodipodi:nodetypes="cccccccccccccccccc"
       inkscape:label="Attack" /><g
       id="g9"
       style="display:inline;fill:#ffffff"
       transform="matrix(3.1868486,0,0,3.1868486,1.6452666,-3.0109394)"
       inkscape:label="Special Attack"><path
         id="ellipse5"
         style="display:inline;opacity:1;fill:#ffffff;stroke-width:0.264583"
         d="M 9.525,4.7625 A 7.1437502,4.7624998 0 0 0 2.38125,9.525 7.1437502,4.7624998 0 0 0 9.525,14.2875 7.1437502,4.7624998 0 0 0 16.66875,9.525 7.1437502,4.7624998 0 0 0 9.525,4.7625 Z m 0,1.0583333 A 5.5562501,3.3072917 0 0 1 15.08125,9.128125 5.5562501,3.3072917 0 0 1 9.525,12.435417 5.5562501,3.3072917 0 0 1 3.96875,9.128125 5.5562501,3.3072917 0 0 1 9.525,5.8208333 Z" /><path
         id="ellipse7"
         style="display:inline;opacity:1;fill:#ffffff;stroke-width:0.513316"
         d="M 9.525,6.35 A 4.7624998,2.778125 0 0 0 4.7625,9.128125 4.7624998,2.778125 0 0 0 9.525,11.90625 4.7624998,2.778125 0 0 0 14.2875,9.128125 4.7624998,2.778125 0 0 0 9.525,6.35 Z m 0,0.5291667 A 3.7041667,1.8520833 0 0 1 13.229167,8.73125 3.7041667,1.8520833 0 0 1 9.525,10.583333 3.7041667,1.8520833 0 0 1 5.8208333,8.73125 3.7041667,1.8520833 0 0 1 9.525,6.8791667 Z" /><ellipse
         style="display:inline;opacity:1;fill:#ffffff;stroke-width:0.261813"
         id="ellipse9"
         cx="9.5249996"
         cy="8.7312508"
         rx="2.3812499"
         ry="1.3229166" /></g></g><g
     inkscape:groupmode="layer"
     id="g10"
     inkscape:label="Special"
     style="display:inline"><path
       id="path5"
       style="fill:#000000;fill-opacity:1;stroke:none"
       inkscape:label="Shield"
       d="M 3.9978092 7.0007437 L 3.9978092 41.998358 L 32.000784 55.999846 L 59.997655 41.998358 L 59.997655 7.0007437 L 3.9978092 7.0007437 z M 32.000784 12.164326 A 22.76605 15.177366 0 0 1 54.766934 27.343794 A 22.76605 15.177366 0 0 1 32.000784 42.523262 A 22.76605 15.177366 0 0 1 9.234634 27.343794 A 22.76605 15.177366 0 0 1 32.000784 12.164326 z M 32.000784 15.539576 A 17.706928 10.539838 0 0 0 14.294457 26.080364 A 17.706928 10.539838 0 0 0 32.000784 36.621153 A 17.706928 10.539838 0 0 0 49.707111 26.080364 A 17.706928 10.539838 0 0 0 32.000784 15.539576 z M 32.000784 17.224149 A 15.177366 8.8534638 0 0 1 47.180252 26.080364 A 15.177366 8.8534638 0 0 1 32.000784 34.930476 A 15.177366 8.8534638 0 0 1 16.821316 26.080364 A 15.177366 8.8534638 0 0 1 32.000784 17.224149 z M 32.000784 18.914825 A 11.804618 5.9023091 0 0 0 20.196566 24.816934 A 11.804618 5.9023091 0 0 0 32.000784 30.719043 A 11.804618 5.9023091 0 0 0 43.805002 24.816934 A 11.804618 5.9023091 0 0 0 32.000784 18.914825 z M 32.000784 20.599398 A 7.5886829 4.215935 0 0 1 39.587466 24.816934 A 7.5886829 4.215935 0 0 1 32.000784 29.028367 A 7.5886829 4.215935 0 0 1 24.414102 24.816934 A 7.5886829 4.215935 0 0 1 32.000784 20.599398 z " /></g><g
     inkscape:groupmode="layer"
     id="g5"
     inkscape:label="Physical"
     style="display:none"><path
       id="path1"
       style="display:inline;fill:#000000;fill-opacity:1;stroke:none"
       inkscape:label="Shield"
       d="M 3.9978092,7.0007437 V 41.998358 L 32.000784,55.999846 59.997655,41.998358 V 7.0007437 Z m 28.0029748,2.8442428 3.49732,11.7370795 14.874291,-6.707775 -8.746352,10.894793 16.626004,2.514653 -16.626004,2.514652 8.746352,10.900897 -14.874291,-6.707775 -3.49732,11.73708 L 28.49736,34.991511 13.623069,41.699286 22.375524,30.798389 5.749521,28.283737 22.375524,25.769084 13.623069,14.874291 28.49736,21.582066 Z" /></g></svg>
