<?xml version="1.0" encoding="UTF-8" standalone="no"?>
<svg
   width="0.213333in"
   height="0.213333in"
   viewBox="0 0 64 64"
   version="1.1"
   id="svg1"
   xml:space="preserve"
   xmlns="http://www.w3.org/2000/svg"
   xmlns:svg="http://www.w3.org/2000/svg"><defs
     id="defs1" /><path
     id="path5"
     style="display:inline;fill:#000000;fill-opacity:1;stroke:none"
     d="M 3.9978092,7.0007437 V 41.998358 L 32.000784,55.999846 59.997655,41.998358 V 7.0007437 Z M 32.000784,12.164326 A 22.76605,15.177366 0 0 1 54.766934,27.343794 22.76605,15.177366 0 0 1 32.000784,42.523262 22.76605,15.177366 0 0 1 9.234634,27.343794 22.76605,15.177366 0 0 1 32.000784,12.164326 Z m 0,3.37525 A 17.706928,10.539838 0 0 0 14.294457,26.080364 17.706928,10.539838 0 0 0 32.000784,36.621153 17.706928,10.539838 0 0 0 49.707111,26.080364 17.706928,10.539838 0 0 0 32.000784,15.539576 Z m 0,1.684573 a 15.177366,8.8534638 0 0 1 15.179468,8.856215 15.177366,8.8534638 0 0 1 -15.179468,8.850112 15.177366,8.8534638 0 0 1 -15.179468,-8.850112 15.177366,8.8534638 0 0 1 15.179468,-8.856215 z m 0,1.690676 a 11.804618,5.9023091 0 0 0 -11.804218,5.902109 11.804618,5.9023091 0 0 0 11.804218,5.902109 11.804618,5.9023091 0 0 0 11.804218,-5.902109 11.804618,5.9023091 0 0 0 -11.804218,-5.902109 z m 0,1.684573 a 7.5886829,4.215935 0 0 1 7.586682,4.217536 7.5886829,4.215935 0 0 1 -7.586682,4.211433 7.5886829,4.215935 0 0 1 -7.586682,-4.211433 7.5886829,4.215935 0 0 1 7.586682,-4.217536 z" /></svg>
