<?xml version="1.0" encoding="UTF-8" standalone="no"?>
<svg
   width="0.213333in"
   height="0.213333in"
   viewBox="0 0 64 64"
   version="1.1"
   id="svg1"
   xml:space="preserve"
   xmlns="http://www.w3.org/2000/svg"
   xmlns:svg="http://www.w3.org/2000/svg"><defs
     id="defs1" /><g
     id="g1"><path
       id="ellipse5"
       style="display:inline;opacity:1;fill:#000000;stroke-width:1.03704"
       d="M 32,13.333303 A 28.000045,18.666696 0 0 0 3.9999553,32 28.000045,18.666696 0 0 0 32,50.666696 28.000045,18.666696 0 0 0 60.000044,32 28.000045,18.666696 0 0 0 32,13.333303 Z m 0,4.148155 A 21.777813,12.962984 0 0 1 53.777812,30.444442 21.777813,12.962984 0 0 1 32,43.407427 21.777813,12.962984 0 0 1 10.222187,30.444442 21.777813,12.962984 0 0 1 32,17.481458 Z" /><path
       id="ellipse7"
       style="display:inline;opacity:1;fill:#000000;stroke-width:2.01195"
       d="M 32,19.555536 A 18.666696,10.888906 0 0 0 13.333303,30.444442 18.666696,10.888906 0 0 0 32,41.333348 18.666696,10.888906 0 0 0 50.666696,30.444442 18.666696,10.888906 0 0 0 32,19.555536 Z m 0,2.074077 A 14.518542,7.2592707 0 0 1 46.518543,28.888884 14.518542,7.2592707 0 0 1 32,36.148153 14.518542,7.2592707 0 0 1 17.481458,28.888884 14.518542,7.2592707 0 0 1 32,21.629613 Z" /><ellipse
       style="display:inline;opacity:1;fill:#000000;stroke-width:1.02618"
       id="ellipse9"
       cx="31.999998"
       cy="28.888887"
       rx="9.3333483"
       ry="5.1851931" /></g></svg>
