<?xml version="1.0" encoding="UTF-8" standalone="no"?>
<!DOCTYPE svg PUBLIC "-//W3C//DTD SVG 20010904//EN"
              "http://www.w3.org/TR/2001/REC-SVG-20010904/DTD/svg10.dtd">

<svg xmlns="http://www.w3.org/2000/svg"
     width="0.213333in" height="0.213333in"
     viewBox="0 0 64 64">
  <path id="Selection #4"
        fill="none" stroke="black" stroke-width="1"
        d="M 0.00,16.00
           C 0.00,16.00 64.00,16.00 64.00,16.00
             64.00,16.00 64.00,19.00 64.00,19.00
             64.00,19.00 0.00,19.00 0.00,19.00
             0.00,19.00 0.00,16.00 0.00,16.00 Z
           M 0.00,45.00
           C 0.00,45.00 64.00,45.00 64.00,45.00
             64.00,45.00 64.00,48.00 64.00,48.00
             64.00,48.00 0.00,48.00 0.00,48.00
             0.00,48.00 0.00,45.00 0.00,45.00 Z
           M 0.00,38.00
           C 0.00,38.00 64.00,38.00 64.00,38.00
             64.00,38.00 64.00,41.00 64.00,41.00
             64.00,41.00 0.00,41.00 0.00,41.00
             0.00,41.00 0.00,38.00 0.00,38.00 Z
           M 0.00,30.00
           C 0.00,30.00 64.00,30.00 64.00,30.00
             64.00,30.00 64.00,34.00 64.00,34.00
             64.00,34.00 0.00,34.00 0.00,34.00
             0.00,34.00 0.00,30.00 0.00,30.00 Z
           M 0.00,23.00
           C 0.00,23.00 64.00,23.00 64.00,23.00
             64.00,23.00 64.00,26.00 64.00,26.00
             64.00,26.00 0.00,26.00 0.00,26.00
             0.00,26.00 0.00,23.00 0.00,23.00 Z" />
</svg>
