<?xml version="1.0" encoding="UTF-8" standalone="no"?>
<svg
   width="0.213333in"
   height="0.213333in"
   viewBox="0 0 64 64"
   version="1.1"
   id="svg1"
   sodipodi:docname="Speed_main.svg"
   xml:space="preserve"
   xmlns:inkscape="http://www.inkscape.org/namespaces/inkscape"
   xmlns:sodipodi="http://sodipodi.sourceforge.net/DTD/sodipodi-0.dtd"
   xmlns="http://www.w3.org/2000/svg"
   xmlns:svg="http://www.w3.org/2000/svg"><defs
     id="defs1" /><sodipodi:namedview
     id="namedview1"
     pagecolor="#ffffff"
     bordercolor="#000000"
     borderopacity="0.25"
     inkscape:showpageshadow="2"
     inkscape:pageopacity="0.0"
     inkscape:pagecheckerboard="0"
     inkscape:deskcolor="#d1d1d1"
     inkscape:document-units="in" /><path
     id="Unnamed"
     style="fill:#000000;fill-opacity:1;stroke:none"
     inkscape:label="Main"
     d="M 20.001253,11.999531 16.20486,15.99734 h 21.807896 c 1.445159,-1.448651 3.623677,-3.634872 3.985602,-3.997809 z m 28.997849,0 -3.997809,3.997809 H 55.206387 L 59.00278,11.999531 Z M 13.34841,19.000275 9.5520173,22.998084 H 31.018116 c 1.956629,-1.958496 2.115859,-2.112128 3.997809,-3.997809 z m 28.649948,0 -3.997809,3.997809 h 10.552996 l 3.796393,-3.997809 z M 6.7016709,26.001018 2.9052781,29.998827 H 24.005165 c 0.697131,-0.689755 2.371342,-2.366403 4.003913,-3.997809 z m 28.2959441,0 -3.997809,3.997809 h 10.907 l 3.796392,-3.997809 z M 2.9052781,34.00274 c 0.6863191,0.720293 2.2088018,2.317979 3.8085999,3.997809 h 21.270786 c -1.63107,-1.632235 -3.309607,-3.308328 -3.991706,-3.997809 z m 28.0945279,0 3.997809,3.997809 H 45.703198 L 41.906806,34.00274 Z M 9.5703279,40.99738 c 1.8853811,1.980916 2.0663261,2.1832 3.7963931,4.003913 H 34.985408 C 33.092726,43.112349 32.938906,42.959029 30.975392,40.99738 Z m 28.4241181,0 4.003912,4.003913 h 10.35158 L 48.547441,40.99738 Z M 16.20486,47.998124 c 1.214142,1.282083 3.808404,4.003913 3.796393,4.003913 h 21.997105 c -0.363893,-0.362883 -2.554266,-2.551664 -4.010016,-4.003913 z m 28.790329,0 4.003913,4.003913 H 59.00278 l -3.802496,-4.003913 z" /></svg>
