<?xml version="1.0" encoding="UTF-8" standalone="no"?>
<!DOCTYPE svg PUBLIC "-//W3C//DTD SVG 20010904//EN"
              "http://www.w3.org/TR/2001/REC-SVG-20010904/DTD/svg10.dtd">

<svg xmlns="http://www.w3.org/2000/svg"
     width="0.213333in" height="0.213333in"
     viewBox="0 0 64 64">
  <path id="Selection #1"
        fill="none" stroke="black" stroke-width="1"
        d="M 0.00,53.00
           C 0.00,53.00 64.00,53.00 64.00,53.00
             64.00,53.00 64.00,64.00 64.00,64.00
             64.00,64.00 0.00,64.00 0.00,64.00
             0.00,64.00 0.00,53.00 0.00,53.00 Z
           M 0.00,0.00
           C 0.00,0.00 64.00,0.00 64.00,0.00
             64.00,0.00 64.00,11.00 64.00,11.00
             64.00,11.00 0.00,11.00 0.00,11.00
             0.00,11.00 0.00,0.00 0.00,0.00 Z
           M 43.00,11.00
           C 43.00,11.00 50.00,11.00 50.00,11.00
             50.00,11.00 29.00,32.00 29.00,32.00
             29.00,32.00 50.00,53.00 50.00,53.00
             50.00,53.00 43.00,53.00 43.00,53.00
             43.00,53.00 21.94,32.00 22.00,32.00
             22.06,32.00 43.00,11.00 43.00,11.00 Z" />
</svg>
