<svg xmlns="http://www.w3.org/2000/svg" xml:space="preserve" viewBox="0 0 233.53913 245.60099">
  <path d="M38.348995 44.992719c54.408228-58.637439 105.844578-61.380711 153.966141.114303.457212.685818.457212 1.600242-.114303 2.171757-49.493199 50.179017-100.815246 47.092836-153.623232.114303-.800121-.685818-.800121-1.714545-.228606-2.400363zM138.36412 190.729044c-15.316602 6.743877-30.747507 6.743877-46.064109 0-.914424-.342909-1.257333-1.371636-.800121-2.28606l10.973088-21.603267c.342909-.685818 1.14303-1.028727 1.943151-.800121 7.201089 2.171757 14.516481 2.171757 21.71757 0 .800121-.228606 1.600242.114303 1.943151.800121l10.973088 21.603267c.571515.800121.228606 1.828848-.685818 2.28606zM154.36654 226.162974c-25.603872 12.459027-51.664956 11.658906-78.068949 0-.800121-.342909-1.257333-1.371636-.800121-2.28606l10.630179-21.260358c.342909-.800121 1.257333-1.14303 2.057454-.800121 18.631389 6.85818 37.148475 7.658301 54.293925.114303.800121-.342909 1.714545 0 2.171757.800121l10.515876 21.260358c.342909.800121 0 1.828848-.800121 2.171757zM128.191153 109.80252c13.944966 34.062294 31.204719 83.212584 45.492594 132.820086.800121 2.857575 4.229211 3.886302 6.515271 2.057454 59.666166-48.464472 69.153315-116.703363 29.032962-178.084074-1.485939-2.28606-4.686423-2.514666-6.515271-.457212-18.174177 20.003025-42.635019 31.890537-71.553678 38.062899-2.514666.571515-3.886302 3.314787-2.971878 5.600847zM105.330553 109.80252c-13.944966 34.062294-31.204719 83.212584-45.492594 132.820086-.800121 2.857575-4.229211 3.886302-6.515271 2.057454-59.666166-48.464472-69.153315-116.703363-29.032962-178.084074 1.485939-2.28606 4.686423-2.514666 6.515271-.457212 18.174177 20.003025 42.635019 31.890537 71.553678 38.062899 2.514666.571515 3.886302 3.314787 2.971878 5.600847z" class="st21"/>
</svg>
