<svg xmlns="http://www.w3.org/2000/svg" xml:space="preserve" viewBox="0 0 245.60102 177.71928">
  <path d="M218.51222.5142c-.69444-.69444-1.7361-.69444-2.43054 0-13.54158 14.12028-31.01832 25.11558-50.9256 31.59702 7.06014 11.68974 11.22678 26.27298 11.22678 42.2451 0 38.07846-24.07392 68.98104-53.70336 68.98104-29.62944 0-53.70336-30.90258-53.70336-68.98104 0-15.85638 4.16664-30.55536 11.22678-42.2451C60.29564 25.62978 42.8189 14.63448 29.27732.5142c-.69444-.69444-1.7361-.69444-2.43054 0C10.06448 19.14834-.0049 42.87504-.0049 68.68506c0 60.1848 54.9765 109.02708 122.80014 109.02708s122.80014-48.84228 122.80014-109.02708C245.3639 42.87504 235.29452 19.26408 218.51222.5142z" class="st21"/>
  <path d="M122.6795 38.36118c-4.74534 0-9.49068-.23148-14.00454-.5787-.69444 0-1.27314.23148-1.62036.92592-4.0509 7.87032-6.48144 18.63414-6.48144 30.55536 0 23.84244 9.95364 43.17102 22.10634 43.17102s22.10634-19.32858 22.10634-43.17102c0-11.92122-2.43054-22.80078-6.48144-30.55536-.34722-.5787-.92592-.92592-1.62036-.92592-4.6296.34722-9.2592.5787-14.00454.5787z" class="st21"/>
</svg>
