<svg xmlns="http://www.w3.org/2000/svg" xml:space="preserve" viewBox="0 0 239.98483 245.60101">
  <path d="M165.282584 68.353076C163.660088 43.102982 157.575728 20.793662 147.63794.81668c-.608436-1.216872-2.433744-1.01406-2.737962.304218-4.259052 19.368546-8.923728 35.99913-14.19684 49.486128-3.54921-.608436-7.09842-.912654-10.749036-.912654-3.650616 0-7.301232.304218-10.749036.912654-5.273112-13.486998-9.937788-30.117582-14.19684-49.486128C94.704008-.19738 92.8787-.400192 92.270264.81668 82.332476 20.793662 76.248116 43.102982 74.62562 68.353076 61.341434 81.333044 52.924736 99.890342 52.924736 120.47576c0 25.757124 13.081374 48.370662 32.551326 60.742194v30.016176c0 18.962922 15.515118 34.376634 34.376634 34.376634 18.962922 0 34.376634-15.515118 34.376634-34.376634v-30.016176c19.571358-12.371532 32.551326-34.883664 32.551326-60.742194.202812-20.585418-8.11248-39.142716-21.498072-52.122684zm-67.43499 93.597738c-8.011074-1.622496-20.484012-7.808262-22.613538-10.850442-6.692796-7.199826-10.64763-23.019162-9.025134-41.170836.709842-8.213886 3.650616-4.05624 5.0703-1.52109 10.749036 19.875576 20.78823 36.911784 29.306334 49.080504 1.52109 2.129526-.304218 4.968894-2.737962 4.461864zm66.92796-10.850442c-2.129526 3.04218-14.602464 9.227946-22.613538 10.850442-2.433744.50703-4.157646-2.332338-2.737962-4.461864 8.518104-12.16872 18.557298-29.204928 29.306334-49.080504 1.419684-2.53515 4.360458-6.692796 5.0703 1.52109 1.622496 18.151674-2.433744 33.97101-9.025134 41.170836zM182.825822 169.353452c2.636556 3.752022 13.081374 18.861516 18.861516 31.43586.405624.811248 1.419684 1.115466 2.230932.50703 48.16785-36.100536 41.880678-92.482272 17.23902-130.205304-.811248-1.216872-2.636556-.608436-2.636556.811248.202812 21.903696-4.56327 42.894738-22.005102 57.091578-.304218.202812-.50703.608436-.50703.912654-2.230932 19.368546-7.09842 30.320394-13.081374 37.621626-.50703.608436-.50703 1.318278-.101406 1.825308zM57.183788 169.353452c-2.636556 3.752022-13.081374 18.861516-18.861516 31.43586-.405624.811248-1.419684 1.115466-2.230932.50703-48.16785-36.100536-41.880678-92.482272-17.23902-130.205304.811248-1.216872 2.636556-.608436 2.636556.811248-.202812 21.903696 4.56327 42.894738 22.005102 57.091578.304218.202812.50703.608436.50703.912654 2.230932 19.368546 7.09842 30.320394 13.081374 37.621626.405624.608436.50703 1.318278.101406 1.825308z" class="st21"/>
</svg>
