<svg xmlns="http://www.w3.org/2000/svg" xml:space="preserve" viewBox="0 0 158.12193 245.60099">
  <path d="M73.752788.87557539C47.564225 35.241159 23.254166 75.021254.2701109 118.77935c-.552501.99451-.221 2.32051.663002 2.98351 24.3100581 19.33755 48.5096131 37.23859 72.4881751 52.81913.884.5525 1.32601 1.768.99451 2.7625l-21.547562 65.08466c-.7735 2.3205 2.09951 4.19901 3.867512 2.54151l90.499722-84.31171c.9945-.884.9945-2.5415 0-3.4255-14.25453-13.92304-28.17757-25.96757-41.4376-35.58109-1.105-.7735-1.326-2.32051-.5525-3.42551l52.37712-68.510157c.88401-1.105002.55251-2.762506-.663-3.536008L76.625798.43357439c-.884-.773502-2.21-.442001-2.87301.442001z" class="st21"/>
</svg>
