<svg xmlns="http://www.w3.org/2000/svg" xml:space="preserve" viewBox="0 0 245.601 238.07024">
  <path d="M239.65151 8.7374502c-.86283-2.5884714-2.95826-4.5606404-5.66999-5.3002044-43.51098-11.21671-84.31022 5.4234654-111.18102 44.0040192C95.929703 8.8607112 55.253714-7.7794642 11.619477 3.4372458c-2.711733.739564-4.807162 2.711733-5.669986 5.3002044C-13.032635 67.532736 15.933596 101.79917 57.102622 121.27434c-16.886696 13.68192-19.721689 30.56861-16.270393 49.0577.246521.98608.862823 1.84891 1.848908 2.34195 19.84495 8.38172 41.908586 9.9841 55.467256-4.56064-8.62824 33.77339-14.91453 60.27441-11.09346 68.53287 5.66999 12.20279 34.882747-57.68594 35.745567-70.012.86282 12.32606 29.95231 82.09153 35.74556 70.012 3.82108-8.25846-2.46521-34.75948-11.09345-68.53287 13.55866 14.42148 35.49904 12.94236 55.46725 4.56064.98609-.36978 1.72565-1.23261 1.84891-2.34195 3.57456-18.36583.6163-35.37578-16.27039-49.0577 41.16902-19.47517 70.13525-53.741604 51.15313-112.5368898ZM122.92376 119.05565c-20.70777 0-35.499037-12.8191-38.950337-23.17299 31.801227.493036 38.950337-29.58253 38.950337-29.58253s7.02585 30.075566 38.95034 29.58253c-3.4513 10.23063-18.24257 23.17299-38.95034 23.17299z" class="st21"/>
</svg>
