<svg xmlns="http://www.w3.org/2000/svg" xml:space="preserve" viewBox="0 0 221.57944 245.60099">
  <path d="M34.166126 119.52965H8.17142c-4.54056 0-8.173008-3.632448-8.173008-8.173008V4.085912c0-2.27028 1.816224-4.086504 4.086504-4.086504H38.25263c2.27028 0 4.086504 1.816224 4.086504 4.086504v107.27073c0 4.54056-3.632448 8.173008-8.173008 8.173008zM93.87449 119.52965H67.879784c-4.54056 0-8.173008-3.632448-8.173008-8.173008V4.085912c0-2.27028 1.816224-4.086504 4.086504-4.086504h34.167714c2.27028 0 4.086504 1.816224 4.086504 4.086504v107.27073c0 4.54056-3.632448 8.173008-8.173008 8.173008zM119.41514 131.902676v-29.51364c0-2.27028 1.816224-4.086504 4.086504-4.086504h93.989592c2.27028 0 4.086504 1.816224 4.086504 4.086504v41.773152c0 2.27028-1.816224 4.086504-4.086504 4.086504h-81.73008c-9.08112 0-16.346016-7.264896-16.346016-16.346016zM157.669358 81.729488h-34.167714c-2.27028 0-4.086504-1.816224-4.086504-4.086504V4.085912c0-2.27028 1.816224-4.086504 4.086504-4.086504h34.167714c2.27028 0 4.086504 1.816224 4.086504 4.086504v73.557072c0 2.27028-1.816224 4.086504-4.086504 4.086504zM217.377722 81.729488h-34.167714c-2.27028 0-4.086504-1.816224-4.086504-4.086504V4.085912c0-2.27028 1.816224-4.086504 4.086504-4.086504h34.167714c2.27028 0 4.086504 1.816224 4.086504 4.086504v73.557072c0 2.27028-1.816224 4.086504-4.086504 4.086504z" class="st21"/>
  <path d="M124.296242 164.594708c-11.691942 0-21.227118-9.535176-21.227118-21.227118 0-2.043252-1.70271-3.632448-3.632448-3.632448H4.19843c-2.27028 0-4.086504 1.816224-4.086504 4.086504v48.924534c0 1.248654.56757 2.383794 1.589196 3.178392l50.967786 40.751526c11.237886 8.967606 26.335248 11.3514 39.843414 6.356784l126.454596-47.335338c1.589196-.56757 2.610822-2.156766 2.610822-3.859476V168.34067c0-2.043252-1.70271-3.632448-3.632448-3.632448h-93.64905z" class="st21"/>
</svg>
