<svg xmlns="http://www.w3.org/2000/svg" xml:space="preserve" viewBox="0 0 181.36 245.60099">
  <path d="M46.723673 235.70003C19.496208 220.01342 4.0336978 203.0943-.0000012 156.59472v-.33614c4.145746-31.70935-.448189-36.75148 55.2392602-88.629312l.112047-.112047c17.255262-12.549284 27.787702-41.793599 5.042126-64.4271299-1.00843-1.008425-.33614-2.689132 1.00842-2.80118 21.849206-1.56866 44.034548 2.689133 57.480208 26.7792779.11205.112047.11205.224094.11205.448188 5.04212 18.151644-.11205 30.700928-6.94693 48.852571-9.86015 28.908162-7.05897 40.673112 2.80118 46.387522 1.34457.78433 2.80118-.44819 2.35299-1.9048-10.08424-31.037061 4.93008-41.905637 30.92502-45.155005 1.45662-.224094 2.46504 1.568661 1.34457 2.689133-11.54086 12.213141-1.45661 36.415322 22.07329 61.401842.11205.11205.2241.2241.2241.33614 34.39848 62.97052-30.70093 108.46168-84.931762 105.32435-1.68071-.11204-2.1289-2.24094-.67229-3.02527 18.487792-9.9722 49.412812-35.96714 21.513062-59.16091-.11205-.11205-.11205-.11205-.22409-.11205-25.770852-15.35046-45.827298-36.97557-47.844148-72.60657-.11205-1.45662-2.016852-2.1289-2.913229-.89638-31.597305 40.89722-29.804551 84.25948-7.95535 124.14828 1.008424 1.23252-.560236 2.80118-2.01685 1.9048z" class="st21"/>
</svg>
