<svg xmlns="http://www.w3.org/2000/svg" xml:space="preserve" viewBox="0 0 225.39656 245.60099">
  <path d="M.01379064 240.11479C4.9261896 171.69208 20.949969 97.304322 61.769669 47.712485c.350886-.350885.818734-.701771 1.286581-.818733L222.12443.1089958c1.98835-.58481 3.74278 1.2865801 3.15797 3.1579711C211.01305 48.64818 167.73715 82.216242 105.51343 107.94785l80.46978-16.023768c2.22227-.46785 3.85974 2.10531 2.57316 3.9767C166.56753 127.94833 128.321 143.27034 84.226348 152.62729l62.691592-3.27493c2.22227-.11696 3.50885 2.57316 1.98835 4.21063-23.6263 25.49769-55.206012 33.33414-97.780153 34.26983L9.2537796 243.62364c-3.157971 3.97671-9.59087486 1.52051-9.23998896-3.50885z" class="st21"/>
</svg>
