<svg xmlns="http://www.w3.org/2000/svg" xml:space="preserve" viewBox="0 0 245.601 200.1381">
  <path d="M227.6978 97.516014c-9.71156-5.80691-19.02264-1.20143-27.93324 5.706786 2.20262-8.109646 3.50417-15.818816 3.50417-22.727036 0-44.452884-36.04288-80.49576505-80.49576-80.49576505-44.452883 0-80.495764 36.04288105-80.495764 80.49576505 0 6.90822 1.201429 14.61739 3.40405 22.727036-8.910601-6.908216-18.221679-11.413576-27.833114-5.606666C4.2319419 106.82708-2.776396 123.6471 1.0281303 138.96532c.7008338 2.70322 4.0047645 3.60429 6.0071468 1.60191 3.8045269-3.70441 6.7079819-6.30751 11.6138179-8.00953 8.610244-1.80215 4.705598 18.92251 19.823585 26.2312 13.115603 1.10131 21.225252-6.8081 25.330135-13.81643 17.420726 29.93561 41.749665 55.16563 58.970155 55.16563 16.82001 0 41.24907-25.43026 58.87003-55.46599 4.00477 7.10846 12.21454 15.2181 25.53038 14.01667 15.11798-7.30869 11.21334-28.03335 19.82358-26.2312 4.90584 1.70202 7.80929 4.30512 11.61382 8.00953 2.00238 1.90226 5.30631 1.00119 6.00715-1.60191 3.7044-15.31822-3.30393-32.13824-16.92013-41.349186zm-127.952223-9.31108c-7.308695 2.80333-17.220487-5.30631-22.126324-18.021436-4.805717-12.715128-2.803335-25.330136 4.50536-28.133471 7.308695-2.803336 17.220488 5.306313 22.126317 18.02144 4.90584 12.715127 2.90345 25.330127-4.505353 28.133467zm68.181113-18.021436c-4.80572 12.715126-14.71751 20.824766-22.12633 18.021436-7.30869-2.80334-9.4112-15.41834-4.50536-28.133467 4.90584-12.715127 14.71751-20.824776 22.12633-18.02144 7.30869 2.803335 9.31107 15.418343 4.50536 28.133471z" class="st21"/>
</svg>
