<svg xmlns="http://www.w3.org/2000/svg" xml:space="preserve" viewBox="0 0 241.55184 245.60099">
  <path d="m236.86161 185.5937-.9524-.59525-.9524.59525c-.4762.2381-.83335.4762-1.1905.59525l-102.97825 40.0008c-2.73815 1.07145-5.7144 1.6667-8.69065 1.6667-2.8572 0-5.83345-.4762-8.45255-1.54765L7.80941 186.18895c-.35715-.11905-.83335-.35715-1.1905-.59525l-.9524-.59525-.9524.59525c-3.21435 2.02385-5.11915 5.7144-4.64295 9.64305.35715 3.92865 2.8572 7.143 6.54775 8.45255l105.83545 40.11985c3.0953 1.1905 6.4287 1.78575 9.7621 1.78575 3.45245 0 6.78585-.59525 9.88115-1.9048l102.97825-40.0008c3.69055-1.4286 6.07155-4.64295 6.4287-8.5716.35715-3.8096-1.4286-7.50015-4.64295-9.524z" class="st21"/>
  <path d="m7.21416 162.9742 105.83545 40.11985c5.9525 2.26195 12.50025 2.26195 18.45275-.11905l102.97825-40.0008c7.143-2.73815 7.26205-12.8574.11905-15.7146l-102.74015-41.78655c-6.1906-2.50005-12.97645-2.50005-19.16705-.11905L7.09511 147.14055c-7.143 2.8572-7.02395 13.0955.11905 15.83365zM62.92956 46.42425h-43.0961c-.9524 0-1.6667-.7143-1.6667-1.6667V1.66145c0-.9524.7143-1.6667 1.6667-1.6667h43.0961c.9524 0 1.6667.7143 1.6667 1.6667v43.0961c0 .9524-.7143 1.6667-1.6667 1.6667zM212.45636 67.61515h-36.07215c-.9524 0-1.6667-.7143-1.6667-1.6667V29.8763c0-.9524.7143-1.6667 1.6667-1.6667h36.07215c.9524 0 1.6667.7143 1.6667 1.6667v36.07215c.11905.83335-.7143 1.6667-1.6667 1.6667zM106.02566 85.94885h-30.4768c-.9524 0-1.6667-.7143-1.6667-1.6667v-30.4768c0-.9524.7143-1.6667 1.6667-1.6667h30.4768c.9524 0 1.6667.7143 1.6667 1.6667v30.4768c0 .83335-.7143 1.6667-1.6667 1.6667z" class="st21"/>
</svg>
