<svg xmlns="http://www.w3.org/2000/svg" xml:space="preserve" viewBox="0 0 199.54439 245.60099">
  <path d="M199.5444 87.744016V50.528628c0-.822439-.61683-1.439269-1.43927-1.439269h-37.21539c-.82244 0-1.43927.61683-1.43927 1.439269v33.205996l-55.30906-31.972337 22.92551-22.925501c.61683-.61683.61683-1.542074 0-2.056099L100.74885.4626222c-.61683-.6168296-1.542071-.6168296-2.056101 0L72.374679 26.780687c-.61683.61683-.61683 1.542074 0 2.056099l22.92551 22.925501-55.103456 31.766727V50.528628c0-.822439-.61683-1.439269-1.43927-1.439269H1.542075c-.82243904 0-1.43926904.61683-1.43926904 1.439269v37.215388c0 .82244.61683 1.43927 1.43926904 1.43927h34.54246v68.159674H1.43927c-.82243904 0-1.43926904.61683-1.43926904 1.43927v37.21539c0 .82244.61683 1.43927 1.43926904 1.43927h37.215388c.82244 0 1.43927-.61683 1.43927-1.43927v-34.13124l55.206261 31.86953-23.028315 23.02831c-.61683.61683-.61683 1.54207 0 2.05609l26.318075 26.31807c.61683.61683 1.542071.61683 2.056101 0l26.31806-26.31807c.61683-.61682.61683-1.54207 0-2.05609l-23.02831-23.02831 55.41187-31.97234v34.23405c0 .82244.61683 1.43927 1.43927 1.43927h37.21538c.82244 0 1.43927-.61683 1.43927-1.43927v-37.21539c0-.82244-.61683-1.43927-1.43927-1.43927h-34.85087V89.183286h34.85087c.92525.102804 1.54208-.61683 1.54208-1.43927zm-99.926401-.308414L68.468091 107.48256c-.41122.30842-.719634.71964-.719634 1.23366V141.511c0 .82244-.61683 1.43927-1.43927 1.43927H53.04735c-.822439 0-1.439269-.61683-1.439269-1.43927V99.772188l-.308415-.51402 39.579913-25.495623c.71963-.41122 1.64488-.20561 2.0561.411219l7.196341 11.102934c.30842.719634.10281 1.644879-.514021 2.158904z" class="st21"/>
</svg>
