<svg xmlns="http://www.w3.org/2000/svg" xml:space="preserve" viewBox="0 0 245.601 245.60099">
  <path d="M231.31 65.534431c5.61432-6.941342 8.98291-15.720097 8.98291-25.315481C240.29291 17.965825 222.32709 0 200.07396 0c-10.51409 0-20.10947 4.0831421-27.25497 10.718248C157.50721 3.878985 140.56217 0 122.69842 0c-17.86375 0-34.808787 3.7769064-50.12057 10.718248C65.432351 4.0831421 55.836967 0 45.322876 0 23.069752 0 5.1039276 17.965825 5.1039276 40.21895c0 9.595384 3.3685919 18.374139 8.9829114 25.315481C5.1039276 82.581549 0 102.07855 0 122.8005 0 190.58066 55.020339 245.601 122.8005 245.601c67.78016 0 122.8005-55.02034 122.8005-122.8005-.10208-20.72195-5.20601-40.218951-14.291-57.266069zM122.69842 206.81115c-46.445742 0-84.112728-37.66699-84.112728-84.11273 0-46.445741 37.666986-84.112727 84.112728-84.112727 46.44574 0 84.11273 37.666986 84.11273 84.112727 0 46.44574-37.66699 84.11273-84.11273 84.11273z" class="st21"/>
</svg>
