<svg xmlns="http://www.w3.org/2000/svg" xml:space="preserve" viewBox="0 0 217.84157 245.60099">
  <path d="M215.53363 166.82966c-16.89556-29.65115-16.89556-58.51906 0-88.170205 2.90917-5.146991 3.02106-11.301002.33568-16.559885-2.68539-5.258882-7.83238-8.727507-13.65072-9.398854-36.02894-3.916189-61.65201-18.462034-78.43567-44.756447C120.76186 3.132951 115.61486.335673 110.35598 0h-2.90917c-5.25888.447564-10.293983 3.132951-13.426933 7.944269-16.783679 26.182522-42.406742 40.840258-78.435682 44.756447-5.8183379.671347-10.9653299 4.139972-13.6507159 9.398854-2.68538704 5.258883-2.57349604 11.412894.335673 16.559885 16.8955589 29.651145 16.8955589 58.519055 0 88.170205-2.90916904 5.25888-3.02106004 11.52478-.223782 16.89555 2.797278 5.25889 8.1680509 8.72751 14.0982799 9.17508 31.329513 2.23782 57.06447 17.23123 78.547577 45.76346 2.90916 3.8043 6.937243 6.04212 11.301003 6.71347h.11189c.33567 0 .67135.11189 1.11891.11189.33567 0 .78324 0 1.11891.11189h.89513c.33567 0 .78324 0 1.11891-.11189.33568 0 .78324-.11189 1.11891-.11189h.11189c4.36376-.67135 8.50373-2.90917 11.30101-6.71347 21.48309-28.64412 47.21805-43.52564 78.54756-45.76346 5.93023-.44757 11.301-3.91619 14.09828-9.17508 3.13295-5.37077 3.02106-11.74856 0-16.89555zm-40.50458-4.92321c-24.72794 6.2659-46.77049 19.46905-65.90387 39.38567-19.133383-19.91662-41.175942-33.11977-65.903879-39.38567 9.398854-26.18253 9.398854-52.47694-.111891-78.547568 26.741977-6.601576 48.784537-19.133381 66.01577-37.707306 17.23123 18.462034 39.27378 31.10573 66.01576 37.707306-9.62264 26.070628-9.62264 52.365038-.11189 78.547568z" class="st21"/>
</svg>
