<svg xmlns="http://www.w3.org/2000/svg" xml:space="preserve" viewBox="0 0 245.60098 245.60099">
  <path d="M243.18956 69.52079 176.09209 2.42332C174.48083.81206 172.40921.00643 170.2225.00643H75.38834c-2.18671 0-4.25833.92072-5.86959 2.41689L2.42128 69.52079C.81002 71.13205.00439 73.20367.00439 75.39038v94.83416c0 2.18671.92072 4.25833 2.41689 5.86959l67.09747 67.09747c1.61126 1.61126 3.68288 2.41689 5.86959 2.41689h94.83416c2.18671 0 4.25833-.92072 5.86959-2.41689l67.09747-67.09747c1.61126-1.61126 2.41689-3.68288 2.41689-5.86959V75.39038c0-2.18671-.92072-4.25833-2.41689-5.86959zm-78.83665-46.26618c34.29682.57545 53.40176 17.72386 55.01302 53.86212.11509 1.49617-1.72635 2.3018-2.87725 1.26599l-53.40176-52.25086c-.92072-1.1509-.23018-2.87725 1.26599-2.87725zm-56.85446 202.78858c-61.22788-1.84144-89.88529-33.83646-90.11547-92.072 0-1.49617 1.84144-2.18671 2.87725-1.1509l88.50421 90.34565c1.03581 1.1509.23018 2.87725-1.26599 2.87725zm30.61394 0c-1.49617 0-2.3018-1.72635-1.26599-2.87725l88.50421-90.34565c1.03581-1.03581 2.87725-.34527 2.87725 1.1509-.23018 58.23554-28.88759 90.23056-90.11547 92.072z" class="st21"/>
</svg>
