<svg xmlns="http://www.w3.org/2000/svg" xml:space="preserve" viewBox="0 0 245.601 238.36663">
  <path d="M126.999106 138.209024c-.699828-2.216122-3.032588-3.49914-5.24871-2.799312L20.858526 165.26904c-1.399656.349914-1.632932 2.216122-.466552 3.032588l99.842128 69.749524c.58319.466552 1.399656.349914 1.982846 0l27.293292-20.295012c.58319-.466552.816466-1.16638.58319-1.866208zM117.084876 104.850556 101.222108 51.54699c-.233276-.933104.233276-1.866208 1.16638-2.099484l20.99484-6.181814h.116638l81.180048-31.842174c.816466-.349914 1.283018-1.16638 1.049742-1.982846l-2.449398-8.281298c-.233276-.699828-.816466-1.16638-1.632932-1.16638H50.601216c-.699828 0-1.399656.466552-1.632932 1.16638L.096962 141.35825c-.466552 1.283018.699828 2.566036 2.099484 2.216122l111.97248-33.24183c2.216122-.933104 3.49914-3.265864 2.91595-5.481986zM79.993992 38.833448l-.349914.349914c-14.813026 11.08061-31.49226-5.598624-20.41165-20.41165l.349914-.349914c14.813026-11.08061 31.375622 5.481986 20.41165 20.41165z" class="st21"/>
  <path d="m245.503314 144.740752-31.49226-106.840408c-.233276-.933104-1.283018-1.399656-2.216122-1.049742l-74.64832 29.276138c-1.982846.816466-3.149226 3.032588-2.449398 5.132072L172.25465 197.92768c.349914 1.16638 1.632932 1.516294 2.566036.816466l70.099438-52.137186c.58319-.466552.816466-1.16638.58319-1.866208zm-49.337874-41.523128-.349914.349914c-20.644926 15.512854-43.855888-7.698108-28.459672-28.459672l.349914-.349914c20.761564-15.512854 43.972526 7.698108 28.459672 28.459672z" class="st21"/>
</svg>
