<svg xmlns="http://www.w3.org/2000/svg" xml:space="preserve" viewBox="0 0 148.07683 245.60099">
  <path d="M139.47815 138.69848c0-.10036-.10036-.20072-.20072-.30108C109.57067 86.510919 93.111512 46.567362 77.455242 2.4086566c-1.10396-3.21154214-5.6202-3.21154214-6.82452 0C54.974452 46.567362 38.515285 86.510919 8.8085196 138.3974c-.100361.10036-.100361.20072-.200722.30108C-22.403656 206.44195 37.612039 246.48587 74.042982 245.58262c36.330568 1.00361 96.446628-39.14067 65.435168-106.88414zM129.141 191.99001c-10.43751 17.76384-28.90388 33.62083-55.499458 35.2266.30108 0-.30109 0 0 0-22.38044-.70252-42.352227-13.54869-53.793346-34.12263-1.906853-3.51263 1.505411-7.52706 5.319117-6.12201 31.513269 11.84257 68.546369 10.63824 98.554207-1.20432 3.91407-1.50541 7.52706 2.60937 5.41948 6.22236z" class="st21"/>
</svg>
