<svg xmlns="http://www.w3.org/2000/svg" xml:space="preserve" viewBox="0 0 80 80">
  <path d="m40 0-4.917969 9c16.788491-3.0766028 37.076568 9.049606 37.06836 31 .0082 21.95-20.279448 34.076679-37.06836 31L40 80c22.09139 0 40-17.90861 40-40S62.09139 0 40 0Zm-6.320312 11.568359L28.375 21.277344l-12.212891-5.115235L21.277344 28.375 0 40l21.277344 11.625-5.115235 12.212891L28.375 58.722656l5.304688 9.708985c2.913171-1.387697 16.747376-8.876053 17.873082-26.402339-.0026.0012-.0053.0027-.0078.0039-1.540549.75202-4.389939 2.249318-5.826172 3.685551C42.921433 48.516118 40.043953 56.054676 40 56.169922c0 0-2.910701-7.643123-5.71875-10.451172C31.473201 42.910701 23.830078 40 23.830078 40s7.643123-2.910701 10.451172-5.71875C37.089299 31.473201 40 23.830078 40 23.830078s2.910701 7.643123 5.71875 10.451172c1.235211 1.235211 3.43579 2.519307 5.830172 3.6875.0013.000625.0026.0013.0039.002-.715177-11.134504-7.392815-21.410055-17.873052-26.402349Z"/>
</svg>
