<svg xmlns="http://www.w3.org/2000/svg" viewBox="0 0 94 94">
  <path d="M94 47 69 33.34l5.977368-14.350335L60.66 25 47 0 33.34 25l-14.350335-6.010335L25 33.34 0 47l25 13.66-6.010335 14.350335L33.34 69 47 94l13.66-25 14.350335 5.977368L69 60.66Zm-40.28 6.72C50.420532 57.019468 47 66 47 66s-3.420532-8.980532-6.72-12.28C36.980532 50.420532 28 47 28 47s8.980532-3.420532 12.28-6.72C43.579468 36.980532 47 28 47 28s3.420532 8.980532 6.72 12.28C57.019468 43.579468 66 47 66 47s-8.980532 3.420532-12.28 6.72z"/>
</svg>
