<svg xmlns="http://www.w3.org/2000/svg" xml:space="preserve" viewBox="0 0 416 416">
  <circle cx="208" cy="208" r="208" fill="#97a629"/>
  <path fill="#fff" d="M126.26846 126.90399c56.71168-61.119948 110.32566-63.97936 160.48454.11914.47656.71485.47656 1.66799-.11915 2.2637-51.58857 52.30343-105.08341 49.08659-160.12711.11914-.83399-.71485-.83399-1.78713-.23828-2.50198zm104.24942 151.90629c-15.96505 7.0294-32.04925 7.0294-48.01431 0-.95313-.35743-1.31056-1.4297-.83399-2.38284l11.43765-22.51787c.35743-.71485 1.19143-1.07228 2.02542-.834 7.50596 2.2637 15.13106 2.2637 22.63701 0 .834-.23828 1.66799.11915 2.02542.834l11.43765 22.51787c.59571.83399.23829 1.90627-.71485 2.38284zm16.67991 36.93408c-26.68785 12.9865-53.85228 12.15251-81.37412 0-.834-.35742-1.31057-1.4297-.834-2.38284l11.08023-22.16044c.35742-.83399 1.31056-1.19142 2.14455-.83399 19.42018 7.14852 38.72122 7.98252 56.59255.11913.834-.35743 1.78712 0 2.2637.83399l10.96108 22.16045c.35742.834 0 1.90628-.83399 2.2637zm-27.28357-121.28675c14.53535 35.50438 32.52582 86.73551 47.4186 138.44323.83399 2.97856 4.40826 4.05084 6.79111 2.14456 62.19222-50.51629 72.08101-121.64418 30.26211-185.62354-1.54885-2.38284-4.88482-2.62112-6.79111-.47657-18.9436 20.84989-44.44004 33.24067-74.58301 39.67436-2.62113.5957-4.05083 3.45512-3.0977 5.83796zm-23.82844 0c-14.53534 35.50438-32.52582 86.73551-47.41859 138.44323-.834 2.97856-4.40826 4.05084-6.7911 2.14456-62.192229-50.51629-72.081031-121.64418-30.26212-185.62354 1.54885-2.38284 4.88483-2.62112 6.7911-.47657 18.94361 20.84989 44.44004 33.24067 74.58303 39.67436 2.62111.5957 4.05082 3.45512 3.09768 5.83796z" class="st21"/>
</svg>