<svg xmlns="http://www.w3.org/2000/svg" xml:space="preserve" viewBox="0 0 416 416">
  <circle cx="208" cy="208" r="208" fill="#534745"/>
  <g fill="#fff">
    <path d="M307.7692976 115.92149943c-.72384016-.72384016-1.8096004-.72384016-2.53344055 0-14.1148831 14.71808323-32.3315271 26.17888575-53.08161167 32.93472724 7.35904162 12.18464267 11.70208257 27.38528601 11.70208257 44.03360967 0 39.69056872-25.09312551 71.9014558-55.9769723 71.9014558-30.88384678 0-55.9769723-32.21088708-55.9769723-71.9014558 0-16.52768363 4.34304096-31.848967 11.70208257-44.03360967-20.75008456-6.75584149-38.96672856-18.216644-53.08161166-32.93472724-.72384016-.72384016-1.8096004-.72384016-2.53344056 0-17.49280384 19.42304427-27.98848615 44.1542497-27.98848615 71.05697561 0 62.73281379 57.3040126 113.64290498 127.99906813 113.64290498 70.69505553 0 127.99906813-50.9100912 127.99906813-113.64290498-.24128006-26.9027259-10.73696236-51.51329132-28.2297662-71.05697561Z" class="st21"/>
    <path d="M207.87935565 155.3707881c-4.94624109 0-9.89248217-.24128006-14.5974432-.60320014-.72384017 0-1.3270403.24128006-1.68896038.96512022-4.22240092 8.2035218-6.75584148 19.42304426-6.75584148 31.848967 0 24.85184546 10.37504228 44.99872988 23.04224506 44.99872988 12.66720279 0 23.04224507-20.14688442 23.04224507-44.99872988 0-12.42592274-2.53344056-23.76608523-6.75584149-31.848967-.36192008-.60320014-.96512021-.96512022-1.68896037-.96512022-4.82560106.36192008-9.65120212.60320014-14.5974432.60320014z" class="st21"/>
  </g>
</svg>