<svg xmlns="http://www.w3.org/2000/svg" xml:space="preserve" viewBox="0 0 416 416">
  <circle cx="208" cy="208" r="208" fill="#5e66e5"/>
  <path fill="#fff" d="M255.19468 151.23787c-1.69117-26.31909-8.03313-49.57291-18.39165-70.39565-.6342-1.26839-2.53678-1.056991-2.85387.317098-4.43937 20.188542-9.30154 37.523212-14.79789 51.581202-3.69947-.6342-7.39894-.95129-11.20412-.95129-3.80516 0-7.61033.31709-11.2041.95129-5.49637-14.05799-10.35852-31.39266-14.7979-51.581202-.31709-1.374089-2.21968-1.585488-2.85388-.317098-10.35852 20.82274-16.70047 44.07656-18.39165 70.39565-13.8466 13.5295-22.61963 32.87245-22.61963 54.32938 0 26.84759 13.6352 50.41851 33.92944 63.31381v31.28696c0 19.76574 16.17198 35.83201 35.83203 35.83201 19.76575 0 35.83202-16.17196 35.83202-35.83201v-31.28696c20.39994-12.8953 33.92944-36.36051 33.92944-63.31381.21139-21.45693-8.45593-40.79988-22.40824-54.32938zm-70.28995 97.56034c-8.35024-1.69117-21.35124-8.13883-23.57092-11.30981-6.97614-7.50463-11.09841-23.99371-9.40723-42.91386.7399-8.56164 3.80518-4.22797 5.28496-1.58548 11.20412 20.71703 21.66834 38.47449 30.54708 51.15839 1.58548 2.21968-.3171 5.17926-2.85389 4.65076zm69.76146-11.30981c-2.21967 3.17098-15.22068 9.61864-23.57091 11.30981-2.53678.5285-4.33367-2.43108-2.85388-4.65076 8.87873-12.6839 19.34295-30.44136 30.54706-51.15839 1.47979-2.64249 4.54507-6.97616 5.28496 1.58548 1.69118 18.92015-2.53678 35.40923-9.40723 42.91386zm18.81446 19.02586c2.74818 3.91086 13.6352 19.66004 19.66004 32.76674.4228.84559 1.47979 1.1627 2.32538.5285 50.20712-37.62891 43.65377-96.39766 17.96887-135.71775-.8456-1.26839-2.74818-.63419-2.74818.8456.2114 22.83102-4.75647 44.71075-22.93672 59.50863-.31711.21141-.5285.63419-.5285.9513-2.32538 20.18854-7.39894 31.60405-13.63519 39.21438-.5285.6342-.5285 1.3741-.1057 1.9026zm-130.96129 0c-2.74818 3.91086-13.6352 19.66004-19.66005 32.76674-.42279.84559-1.47979 1.1627-2.32538.5285-50.207111-37.62891-43.653762-96.39766-17.96886-135.71775.84559-1.26839 2.74818-.63419 2.74818.8456-.2114 22.83102 4.75646 44.71075 22.93672 59.50863.3171.21141.52849.63419.52849.9513 2.32539 20.18854 7.39895 31.60405 13.6352 39.21438.4228.6342.52849 1.3741.1057 1.9026z" class="st21"/>
</svg>