<svg xmlns="http://www.w3.org/2000/svg" xml:space="preserve" viewBox="0 0 416 416">
  <circle cx="208" cy="208" r="208" fill="#f5c727"/>
  <path fill="#fff" d="M202.46709 80.913201c-27.2973 35.820499-52.63656 77.284749-76.59368 122.895409-.57589 1.03661-.23036 2.41875.69107 3.10982 25.33926 20.15624 50.56334 38.81514 75.55708 55.05531.92142.57589 1.38215 1.84285 1.03661 2.87946l-22.45981 67.84011c-.80625 2.41875 2.18839 4.37678 4.03125 2.64912l94.33118-87.88118c1.0366-.92142 1.0366-2.6491 0-3.57053-14.85803-14.51249-29.37051-27.06694-43.19193-37.08746-1.15178-.80626-1.38214-2.41876-.57589-3.57054l54.59458-71.41064c.92144-1.15178.57591-2.87946-.69107-3.68571l-83.73475-47.683883c-.92142-.806249-2.30356-.460713-2.99464.460714z" class="st21"/>
</svg>