<svg xmlns="http://www.w3.org/2000/svg" xml:space="preserve" viewBox="0 0 416 416">
  <circle cx="208" cy="208" r="208" fill="#e778f4"/>
  <path fill="#fff" d="M329.79808 93.03271c-.89936-2.69806-3.0835-4.75372-5.91003-5.5246-45.35309-11.691586-87.87964 5.65308-115.88805 45.867-28.00841-40.21392-70.40648-57.558586-115.88804-45.867-2.82654.77088-5.01068 2.82654-5.91003 5.5246-19.785765 61.28447 10.4068 97.00163 53.31878 117.30132-17.60162 14.26115-20.55664 31.86277-16.95923 51.13462.25696 1.02783.89935 1.92719 1.92718 2.44111 20.68512 8.73657 43.68286 10.40679 57.81555-4.75372-8.99353 35.20324-15.54596 62.82622-11.56312 71.43431 5.91004 12.71941 36.35956-60.12816 37.25891-72.97606.89935 12.8479 31.22039 85.56699 37.25891 72.97606 3.98284-8.60809-2.56959-36.23107-11.56311-71.43431 14.13268 15.03203 37.00194 13.49029 57.81554 4.75372 1.02784-.38544 1.79871-1.2848 1.92719-2.44111 3.72589-19.14337.64239-36.87347-16.95922-51.13462 42.91196-20.29969 73.10452-56.01685 53.31877-117.30132zM208.12848 208.0214c-21.58446 0-37.00194-13.36182-40.59936-24.15406 33.14758.51392 40.59936-30.83495 40.59936-30.83495s7.3233 31.34887 40.59936 30.83495c-3.59741 10.66377-19.0149 24.15406-40.59936 24.15406z" class="st21"/>
</svg>