<svg xmlns="http://www.w3.org/2000/svg" xml:space="preserve" viewBox="0 0 416 416">
  <circle cx="208" cy="208" r="208" fill="#f48722"/>
  <g fill="#fff">
    <path d="M128.1341402 204.59135003h-27.09523088c-4.73279142 0-8.51902455-3.78623522-8.51902455-8.51902664V84.2601282c0-2.3663957 1.89311657-4.25951227 4.25951228-4.25951227h35.61425542c2.3663957 0 4.25951228 1.89311656 4.25951228 4.25951227v111.8121952c0 4.73279142-3.78623314 8.51902664-8.51902456 8.51902664zm62.23620715 0h-27.09523087c-4.73279142 0-8.51902456-3.78623522-8.51902456-8.51902664V84.2601282c0-2.3663957 1.89311657-4.25951227 4.25951228-4.25951227h35.61425542c2.36639154 0 4.25951436 1.89311656 4.25951436 4.25951227v111.8121952c0 4.73279142-3.78623522 8.51902664-8.51902663 8.51902664zm26.62195172 12.89686078V186.7250666c0-2.3663957 1.8931124-4.25951644 4.25950811-4.25951644h97.9687907c2.36639571 0 4.25950811 1.89312073 4.25950811 4.25951644v43.54167897c0 2.3663957-1.8931124 4.2595081-4.2595081 4.2595081h-85.19024554c-9.46558284 0-17.03805328-7.57246001-17.03805328-17.03804285zm39.87376979-52.29734934h-35.61426168c-2.3663957 0-4.2595081-1.89311657-4.2595081-4.25951228V84.26012821c0-2.3663957 1.8931124-4.25951227 4.2595081-4.25951227h35.61426168c2.3663957 0 4.2595081 1.89311656 4.2595081 4.25951227v76.67122098c0 2.36639571-1.8931124 4.25951228-4.2595081 4.25951228zm62.23620298 0H283.4880206c-2.36639571 0-4.25951853-1.89311657-4.25951853-4.25951228V84.26012821c0-2.3663957 1.89312282-4.25951227 4.25951853-4.25951227h35.61425125c2.36639571 0 4.25951853 1.89311656 4.25951853 4.25951227v76.67122098c0 2.36639571-1.89312282 4.25951228-4.25951853 4.25951228z" class="st21"/>
    <path d="M222.08004776 251.56430694c-12.18693581 0-22.12580196-9.93886615-22.12580196-22.12580197 0-2.12975405-1.77479678-3.78623522-3.78622897-3.78623522h-99.2703c-2.3663957 0-4.25951227 1.89312283-4.25951227 4.25951854v50.99582336c0 1.30151347.59159892 2.48471132 1.656477 3.3129519l53.12558366 42.47680716c11.71365876 9.3472568 27.45019023 11.83197854 41.5302447 6.62590381l131.80824309-49.33935262c1.65647074-.59159893 2.72135298-2.24806967 2.72135298-4.02286645v-24.49219767c0-2.12975406-1.77479678-3.78623522-3.78623522-3.78623522h-97.613823z" class="st21"/>
  </g>
</svg>