<svg xmlns="http://www.w3.org/2000/svg" xml:space="preserve" viewBox="0 0 416 416">
  <circle cx="208" cy="208" r="208" fill="#d93637"/>
  <path fill="#fff" d="M162.18272 325.67931c-28.38018-16.35072-44.49732-33.98614-48.70179-82.45436v-.35037c4.32126-33.05181-.46717-38.30741 57.5779-92.38157l.11679-.11679c17.98579-13.08057 28.96414-43.56299 5.25559-67.15475-1.05113-1.051119-.35037-2.802981 1.05111-2.919773 22.77424-1.635072 45.89883 2.802982 59.91373 27.913023.1168.11679.1168.23358.1168.46716 5.25558 18.92012-.1168 32.0007-7.24104 50.92082-10.2776 30.13203-7.35783 42.39507 2.91976 48.35141 1.4015.81754 2.91978-.46717 2.45262-1.98545-10.51118-32.35106 5.1388-43.67977 32.23428-47.0667 1.51828-.23359 2.56939 1.63507 1.40149 2.80298-12.02946 12.7302-1.51828 37.95702 23.0078 64.00138.11679.11679.23359.23359.23359.35037 35.85478 65.63648-32.00071 113.05358-88.52748 109.78342-1.75187-.11678-2.21904-2.33581-.70076-3.15335 19.2705-10.39439 51.50478-37.48986 22.42385-61.66558-.1168-.1168-.1168-.1168-.23357-.1168-26.8619-16.00034-47.76748-38.54098-49.86972-75.68048-.11679-1.51828-2.10224-2.21903-3.03656-.93432-32.93503 42.62867-31.06638 87.82673-8.29215 129.40428 1.05111 1.28471-.58396 2.91978-2.10224 1.98545z" class="st21"/>
</svg>