<svg xmlns="http://www.w3.org/2000/svg" xml:space="preserve" viewBox="0 0 416 416">
  <circle cx="208" cy="208" r="208" fill="#93c0f4"/>
  <path fill="#fff" d="M90.54484 330.28098c5.12037-71.3195 21.82255-148.85657 64.37041-200.54796.36574-.36574.8534-.73148 1.34105-.85339l165.80259-48.765466c2.07253-.609569 3.90124 1.341049 3.29166 3.291669-14.87346 47.302497-59.98151 82.291717-124.83957 109.112707l83.87659-16.70215c2.31636-.48766 4.02315 2.19444 2.68211 4.14506-22.91978 33.40432-62.78553 49.37501-108.74701 59.12811l65.34574-3.41359c2.31635-.12191 3.65741 2.68211 2.07253 4.3889-24.62656 26.57717-57.54325 34.7454-101.91983 35.7207l-43.64509 58.15281c-3.29167 4.14507-9.99692 1.58488-9.63118-3.6574z" class="st21"/>
</svg>