<svg xmlns="http://www.w3.org/2000/svg" xml:space="preserve" viewBox="0 0 416 416">
  <circle cx="208" cy="208" r="208" fill="#6f4875"/>
  <path fill="#fff" d="M317.33831 205.33888c-10.12272-6.05276-19.828-1.2523-29.11584 5.9484 2.29587-8.45299 3.65252-16.48854 3.65252-23.68924 0-46.33485-37.56881-83.90367-83.90368-83.90367-46.33487 0-83.90368 37.56882-83.90368 83.90367 0 7.2007 1.25229 15.23625 3.54817 23.68924-9.28785-7.2007-18.99313-11.8968-29.01148-5.84405-14.19266 9.60092-21.497707 27.13303-17.53211 43.09977.730505 2.81767 4.17431 3.75689 6.26147 1.66973 3.9656-3.86124 6.99197-6.57454 12.10551-8.34862 8.97477-1.87845 4.90481 19.72363 20.66284 27.34174 13.67088 1.14793 22.12386-7.09633 26.40253-14.40137 18.15826 31.20298 43.51721 57.50115 61.46675 57.50115 17.53212 0 42.99542-26.50689 61.36239-57.81423 4.17432 7.40941 12.73166 15.86238 26.61125 14.61009 15.75802-7.61811 11.68807-29.22019 20.66284-27.34173 5.11353 1.77407 8.13991 4.48737 12.10551 8.34861 2.08715 1.9828 5.53096 1.04358 6.26147-1.66972 3.86123-15.96674-3.4438-33.49886-17.63646-43.09977zm-133.3693-9.70529c-7.61812 2.92202-17.94954-5.53095-23.06307-18.78439-5.00918-13.25344-2.92202-26.40253 4.6961-29.32454 7.61812-2.92202 17.94954 5.53096 23.06308 18.7844 5.11353 13.25344 3.02636 26.40252-4.69611 29.32453zm71.06768-18.78439c-5.00918 13.25344-15.3406 21.70641-23.06308 18.78439-7.61812-2.92201-9.80965-16.07109-4.6961-29.32453 5.11353-13.25344 15.34059-21.70642 23.06308-18.7844 7.61811 2.92201 9.70527 16.0711 4.6961 29.32454z" class="st21"/>
</svg>