<svg xmlns="http://www.w3.org/2000/svg" xml:space="preserve" viewBox="0 0 416 416">
  <circle cx="208" cy="208" r="208" fill="#5ba634"/>
  <path fill="#fff" d="M329.42916 131.0759c-42.31887 53.36763-77.54984 122.26608-108.403 200.85825-.41694.9381.3127 2.08468 1.35503 2.08468h74.52706c.62541 0 1.25081-.41694 1.45928-1.14658 14.17577-51.28295 24.8076-121.22374 33.66747-200.64978.20846-1.45927-1.66774-2.29314-2.60584-1.14657zM201.01329 308.06464c42.52733-57.01581 62.8529-132.48096 60.76822-226.603959 0-1.355037-1.77197-1.980439-2.71007-.938102-15.63505 18.345121-32.10396 52.846461-49.30252 100.793951v.20846c-11.88264 50.34485-14.59271 91.10021-11.4657 125.81002.10427 1.35504 1.87621 1.8762 2.71007.72963zM85.5224 335.99926h79.53027c.72964 0 1.35504-.52116 1.45927-1.2508 12.71651-73.58896 18.03244-141.75777 13.96731-203.04716-.10423-1.45927-1.98044-1.98044-2.81431-.72963-36.37754 58.78778-67.2307 127.06083-93.706048 202.94292-.104234 1.04234.625398 2.08467 1.563508 2.08467z"/>
</svg>