<svg xmlns="http://www.w3.org/2000/svg" xml:space="preserve" viewBox="0 0 416 416">
  <circle cx="208" cy="208" r="208" fill="#8d572d"/>
  <g fill="#fff">
    <path d="m329.00222055 273.45755868-.99272128-.6204508-.99272128.6204508c-.49636064.24818032-.86863113.49636064-1.2409016.6204508L218.4378877 315.77230335c-2.85407369 1.11681144-5.9563277 1.73726225-9.0585817 1.73726225-2.97816385 0-6.08041786-.49636065-8.81040138-1.61317209L90.25275209 274.07800948c-.37227048-.12409016-.86863113-.37227048-1.2409016-.6204508l-.99272129-.6204508-.99272128.6204508c-3.35043433 2.10953273-5.3358769 5.9563277-4.83951625 10.05130299.37227048 4.09497529 2.97816384 7.44540962 6.82495881 8.81040138l110.31615253 41.81838403c3.22634417 1.2409016 6.70086866 1.8613524 10.17539315 1.8613524 3.59861465 0 7.07313914-.6204508 10.2994833-1.98544256l107.33798869-41.69429387c3.84679497-1.48908192 6.32859817-4.83951625 6.70086865-8.93449154.37227049-3.97088513-1.48908192-7.8176801-4.83951625-9.92721283z" class="st21"/>
    <path d="m89.63230128 249.88042822 110.31615253 41.81838403c6.20450802 2.35771304 13.02946684 2.35771304 19.23397485-.12409016l107.33798869-41.69429387c7.44540961-2.85407369 7.56949978-13.40173732.12409016-16.37990116l-107.08980836-43.55564628c-6.45268834-2.60589337-13.52582748-2.60589337-19.97851582-.12409016L89.50821113 233.3764369c-7.44540962 2.97816384-7.32131946 13.64991763.12409015 16.50399132zm58.07419504-121.48426696h-44.92063804c-.99272128 0-1.73726225-.74454096-1.73726225-1.73726224V81.73826098c0-.99272128.74454097-1.73726225 1.73726225-1.73726225h44.92063804c.99272128 0 1.73726224.74454097 1.73726224 1.73726225v44.92063804c0 .99272128-.74454096 1.73726224-1.73726224 1.73726224zm155.85724137 22.08804854H265.9644191c-.99272129 0-1.73726225-.74454096-1.73726225-1.73726225v-37.59931858c0-.99272128.74454096-1.73726224 1.73726225-1.73726224h37.59931858c.99272128 0 1.73726224.74454096 1.73726224 1.73726224v37.59931858c.12409016.86863113-.74454096 1.73726225-1.73726224 1.73726225zm-110.93660334 19.10988469h-31.76708104c-.99272128 0-1.73726224-.74454096-1.73726224-1.73726225V136.0897512c0-.99272128.74454096-1.73726224 1.73726224-1.73726224h31.76708104c.99272129 0 1.73726225.74454096 1.73726225 1.73726224v31.76708104c0 .86863113-.74454096 1.73726225-1.73726225 1.73726225z" class="st21"/>
  </g>
</svg>