<svg xmlns="http://www.w3.org/2000/svg" xml:space="preserve" viewBox="0 0 416 416">
  <circle cx="208" cy="208" r="208" fill="#76ddff"/>
  <path fill="#fff" d="M311.99621 171.45935v-38.79096c0-.85726-.64295-1.5002-1.5002-1.5002h-38.79096c-.85726 0-1.5002.64294-1.5002 1.5002v34.61183l-57.65066-33.32594 23.89609-23.89609c.64295-.64294.64295-1.60736 0-2.14315L209.018 80.482765c-.64295-.642944-1.60736-.642944-2.14315 0l-27.43229 27.432275c-.64294.64295-.64294 1.60737 0 2.14315l23.8961 23.89609-57.43634 33.11162v-34.39751c0-.85726-.64295-1.5002-1.50021-1.5002h-38.79096c-.85725 0-1.5002.64294-1.5002 1.5002v38.79096c0 .85726.64295 1.50021 1.5002 1.50021h36.00487v71.04531H105.504c-.85726 0-1.50021.64295-1.50021 1.5002v38.79097c0 .85725.64295 1.5002 1.50021 1.5002h38.79096c.85725 0 1.5002-.64295 1.5002-1.5002V248.7198l57.5435 33.21877-24.00325 24.00325c-.64295.64295-.64295 1.60736 0 2.14314l27.43229 27.43229c.64294.64294 1.60735.64294 2.14314 0l27.43228-27.43229c.64295-.64294.64295-1.60736 0-2.14314l-24.00325-24.00325 57.75782-33.32593v35.6834c0 .85725.64295 1.5002 1.5002 1.5002h38.79095c.85727 0 1.50021-.64295 1.50021-1.5002v-38.79097c0-.85725-.64294-1.5002-1.50021-1.5002h-36.32633v-71.04531h36.32633c.96442.10715 1.60737-.64295 1.60737-1.50021zm-104.15694-.32147-32.46868 20.89567c-.42863.32149-.75011.75011-.75011 1.28589v34.1832c0 .85726-.64294 1.5002-1.5002 1.5002h-13.8233c-.85725 0-1.5002-.64294-1.5002-1.5002v-43.50589l-.32147-.53578 41.25558-26.57502c.7501-.42863 1.71452-.21431 2.14316.42863l7.501 11.573c.32148.7501.10717 1.71451-.53578 2.2503z" class="st21"/>
</svg>