<svg xmlns="http://www.w3.org/2000/svg" xml:space="preserve" viewBox="0 0 416 416">
  <circle cx="208" cy="208" r="208" fill="#a4a7a5"/>
  <path fill="#fff" d="M321.10341 148.30949c5.85202-7.23521 9.36322-16.38563 9.36322-26.38725 0-23.19525-18.72643-41.921681-41.92168-41.921681-10.95922 0-20.96083 4.256011-28.40885 11.172021-15.96003-7.12881-33.62247-11.172021-52.2425-11.172021-18.62004 0-36.28247 3.936807-52.2425 11.172021-7.44801-6.91601-17.44963-11.172021-28.40886-11.172021-23.19524 0-41.92167 18.726431-41.92167 41.921681 0 10.00162 3.5112 19.15204 9.36321 26.38725C85.32057 166.07833 80.000554 186.40075 80.000554 208c0 70.64974 57.349706 127.99945 127.999446 127.99945 70.64974 0 127.99945-57.34971 127.99945-127.99945-.1064-21.59925-5.42642-41.92167-14.89604-59.69051zM207.8936 295.56737c-48.41209 0-87.67377-39.26168-87.67377-87.67377 0-48.41209 39.26168-87.67376 87.67377-87.67376 48.41209 0 87.67377 39.26167 87.67377 87.67376s-39.26168 87.67377-87.67377 87.67377z" class="st21"/>
</svg>