<svg xmlns="http://www.w3.org/2000/svg" xml:space="preserve" viewBox="0 0 416 416">
  <circle cx="208" cy="208" r="208" fill="#e24c80"/>
  <path fill="#fff" d="M319.12647 253.8932c-17.61086-30.90648-17.61086-60.99655 0-91.90302 3.03233-5.36489 3.14897-11.77944.34989-17.26097-2.79908-5.48152-8.16397-9.097-14.22864-9.79677-37.55428-4.08199-64.26214-19.24365-81.75636-46.65128-3.14896-5.015012-8.51388-7.930717-13.99539-8.280601h-3.03234c-5.48153.466512-10.72981 3.265589-13.99539 8.280601-17.49425 27.291-44.2021 42.56929-81.75638 46.65128-6.06467.69977-11.42957 4.31525-14.22864 9.79677-2.79908 5.48153-2.68245 11.89608.34988 17.26097 17.61086 30.90647 17.61086 60.99654 0 91.90302-3.03233 5.48153-3.14896 12.01271-.23325 17.61085 2.9157 5.48154 8.51385 9.097 14.69515 9.56352 32.6559 2.33257 59.48038 17.96074 81.87301 47.70093 3.03232 3.96537 7.23095 6.29793 11.77945 6.99769h.11664c.34987 0 .69976.11664 1.16627.11664.34989 0 .8164 0 1.16629.11662h.93302c.34989 0 .8164 0 1.16629-.11662.34989 0 .8164-.11664 1.16627-.11664h.11663c4.54851-.69976 8.86375-3.03232 11.77946-6.99769 22.39261-29.85681 49.21709-45.36836 81.87299-47.70093 6.18129-.46652 11.77945-4.08198 14.69515-9.56352 3.26559-5.59814 3.14897-12.24595 0-17.61085zm-42.2194-5.13164c-25.77484 6.53118-48.7506 20.29331-68.69401 41.05312-19.94344-20.75981-42.9192-34.52194-68.69404-41.05312 9.79677-27.291 9.79677-54.69863-.11663-81.87299 27.87414-6.88107 50.84992-19.94342 68.81067-39.3037 17.96074 19.24365 40.93649 32.42263 68.81063 39.3037-10.03003 27.17436-10.03003 54.58199-.11662 81.87299z" class="st21"/>
</svg>