<svg xmlns="http://www.w3.org/2000/svg" xml:space="preserve" viewBox="0 0 416 416">
  <circle cx="208" cy="208" r="208" fill="#b3af87"/>
  <path fill="#fff" d="m333.48079 152.45736-69.93815-69.938144c-1.67947-1.679475-3.8388-2.519212-6.11809-2.519212h-98.8491c-2.27929 0-4.43862.9597-6.11809 2.519212L82.519213 152.45736C80.839738 154.13684 80 156.29616 80 158.57545v98.84911c0 2.27928.9597 4.43861 2.519213 6.11808l69.938147 69.93816c1.67947 1.67947 3.8388 2.5192 6.11809 2.5192h98.8491c2.27929 0 4.43862-.95969 6.11809-2.5192l69.93815-69.93816c1.67948-1.67947 2.51921-3.8388 2.51921-6.11808v-98.84911c0-2.27929-.95969-4.43861-2.51921-6.11809zm-82.17433-48.22493c35.74884.59981 55.66262 18.47423 57.34209 56.14246.11996 1.55951-1.79943 2.39925-2.99907 1.31958l-55.6626-54.46298c-.95969-1.19962-.23993-2.99906 1.31958-2.99906zm-59.26147 211.37394c-63.82006-1.9194-93.69073-35.26897-93.93065-95.97001 0-1.55951 1.9194-2.27928 2.99906-1.19962l92.25117 94.17057c1.07967 1.19963.23993 2.99906-1.31958 2.99906zm31.91002 0c-1.55951 0-2.39925-1.79943-1.31958-2.99906l92.25117-94.17057c1.07966-1.07966 2.99906-.35989 2.99906 1.19962-.23992 60.70104-30.11059 94.05061-93.93065 95.97001z" class="st21"/>
</svg>