<svg xmlns="http://www.w3.org/2000/svg" xml:space="preserve" viewBox="0 0 416 416">
  <circle cx="208" cy="208" r="208" fill="#74a7bf"/>
  <g fill="#fff">
    <path d="M212.38460482 227.83888018c-.72945835-2.30994277-3.16097925-3.64728135-5.47092201-2.917823l-105.16328282 31.12346953c-1.45891254.36472397-1.70206463 2.30994277-.48630418 3.16097925l104.06909216 72.70247055c.60788023.4863021 1.45891671.36473439 2.06679693 0l28.44879238-21.15422969c.60788022-.4863021.85103648-1.21576045.60788022-1.9452188zm-10.3339638-34.77074045-16.53434416-55.56025659c-.24315626-.97260836.24314584-1.94521671 1.21576045-2.1883688l21.88368804-6.44353037h.12157813l84.61691876-33.1902602c.85103649-.36472813 1.33733858-1.21576045 1.09419274-2.06679276l-2.55309902-8.63189917c-.24315626-.72945627-.85103648-1.21576045-1.70206254-1.21576045H132.75229138c-.72945627 0-1.45891254.48630418-1.70206462 1.21576045L80.10986403 231.12143755c-.48630418 1.33733858.72945627 2.67467715 2.1883688 2.30994277l116.71300707-34.64917274c2.30994277-.97260419 3.64728135-3.40412508 3.03940112-5.71406785zm-38.66118638-68.81204546-.36472813.36472814c-15.44015768 11.54972424-32.82553207-5.83565015-21.27580782-21.27580782l.36472813-.36472814c15.44015768-11.54972424 32.70395602 5.7140741 21.27580782 21.27580782z" class="st21"/>
    <path d="m335.90585788 234.64714076-32.82553206-111.36365485c-.24314584-.97260835-1.33732815-1.45891253-2.30994277-1.0941844l-77.8086686 30.51558722c-2.0667865.85103231-3.28254695 3.16097716-2.55309902 5.34934596L259.556106 290.08581922c.36472396 1.21576045 1.70206254 1.58048442 2.67467715.85103649l73.06719452-54.34449615c.60788022-.4863021.85103648-1.21576044.60788022-1.9452188zm-51.42666273-43.281074-.36472396.3647344c-21.51896408 16.16960977-45.7125949-8.02402104-29.66456325-29.664557l.3647344-.36472813c21.64053178-16.16961394 45.83416258 8.02401895 29.66455281 29.66455074z" class="st21"/>
  </g>
</svg>