<svg xmlns="http://www.w3.org/2000/svg" xml:space="preserve" viewBox="0 0 416 416">
  <circle cx="208" cy="208" r="208" fill="#5086f3"/>
  <path fill="#fff" d="M276.21023 224.57104c0-.10461-.10461-.2092-.20922-.31381-30.96444-54.08318-48.12041-95.71781-64.43951-141.746043-1.1507-3.347508-5.85814-3.347508-7.11345 0-16.3191 46.028233-33.4751 87.662863-64.43955 141.746043-.10461.10461-.10461.2092-.20922.31381-32.32437 70.6115 30.23218 112.35074 68.2055 111.40925 37.86867 1.0461 100.52984-40.79775 68.20545-111.40925zm-10.77479 55.54771c-10.8794 18.51591-30.12756 35.04423-57.8491 36.71798.31383 0-.31383 0 0 0-23.32795-.73226-44.14528-14.1223-56.07078-35.56727-1.98758-3.66134 1.56915-7.84572 5.54431-6.38119 32.84744 12.34394 71.44839 11.08862 102.72665-1.2553 4.07979-1.56915 7.84573 2.71983 5.64892 6.48578z" class="st21"/>
</svg>