<svg xmlns="http://www.w3.org/2000/svg" viewBox="0 0 313.594 313.616">
  <path d="M168.71792 144.79969c-20.12142-20.12878-33.89378-55.278818-40.72853-87.26086-6.84537 31.988572-20.60303 67.14596-40.731801 87.27473C67.136166 164.92846 31.975511 178.70082 0 185.54944c31.988572 6.83475 67.142697 20.59895 87.264119 40.72853 20.121421 20.12143 33.893781 55.27882 40.739141 87.26086 6.83475-31.98857 20.60303-67.14596 40.72119-87.27473 20.12142-20.12143 55.28208-33.88726 87.2576-40.73588-31.98123-6.83475-67.13536-20.6063-87.26413-40.72853zm93.83574-93.761266C250.78475 39.265211 242.72937 18.706132 238.73176 0c-4.00382 18.709951-12.05061 39.273327-23.82382 51.04654-11.76892 11.765097-32.3342 19.820479-51.03652 23.826208 18.70996 3.997612 39.27142 12.048219 51.04034 23.821909 11.76891 11.768923 19.82429 32.332293 23.82811 51.038423 3.99761-18.70995 12.05061-39.27332 23.81761-51.046539 11.76893-11.768916 32.3342-19.820478 51.03652-23.826206-18.70565-3.997613-39.26712-12.052517-51.04034-23.821911Z"/>
</svg>
