<?xml version="1.0" encoding="UTF-8" standalone="no"?>
<svg
   width="19.19997"
   height="19.200001"
   viewBox="0 0 60.000003 60.000098"
   version="1.1"
   id="svg1"
   xml:space="preserve"
   xmlns="http://www.w3.org/2000/svg"
   xmlns:svg="http://www.w3.org/2000/svg"><defs
     id="defs1" /><path
     id="path5"
     style="display:inline;fill:#000000;fill-opacity:1;stroke:none"
     d="M 2.0000787,5.5004985 V 40.498113 L 30.003054,54.4996 57.999924,40.498113 V 5.5004985 Z M 30.003054,10.664081 A 22.76605,15.177366 0 0 1 52.769203,25.843549 22.76605,15.177366 0 0 1 30.003054,41.023017 22.76605,15.177366 0 0 1 7.2369034,25.843549 22.76605,15.177366 0 0 1 30.003054,10.664081 Z m 0,3.37525 A 17.706928,10.539838 0 0 0 12.296726,24.580119 17.706928,10.539838 0 0 0 30.003054,35.120908 17.706928,10.539838 0 0 0 47.70938,24.580119 17.706928,10.539838 0 0 0 30.003054,14.039331 Z m 0,1.684573 a 15.177366,8.8534637 0 0 1 15.179467,8.856215 15.177366,8.8534637 0 0 1 -15.179467,8.850112 15.177366,8.8534637 0 0 1 -15.179469,-8.850112 15.177366,8.8534637 0 0 1 15.179469,-8.856215 z m 0,1.690676 A 11.804618,5.902309 0 0 0 18.198836,23.316689 11.804618,5.902309 0 0 0 30.003054,29.218798 11.804618,5.902309 0 0 0 41.807271,23.316689 11.804618,5.902309 0 0 0 30.003054,17.41458 Z m 0,1.684573 a 7.5886828,4.2159349 0 0 1 7.586682,4.217536 7.5886828,4.2159349 0 0 1 -7.586682,4.211433 7.5886828,4.2159349 0 0 1 -7.586682,-4.211433 7.5886828,4.2159349 0 0 1 7.586682,-4.217536 z" /></svg>
