<?xml version="1.0" encoding="UTF-8" standalone="no"?>
<svg
   width="19.19997"
   height="19.200001"
   viewBox="0 0 60.000003 60.000098"
   version="1.1"
   id="svg1"
   xml:space="preserve"
   xmlns="http://www.w3.org/2000/svg"
   xmlns:svg="http://www.w3.org/2000/svg"><defs
     id="defs1" /><path
     id="Unnamed"
     style="display:inline;fill:#000000;fill-opacity:1;stroke:none"
     d="m 40.952777,9.9987965 3.796394,3.9978085 H 22.941275 c -1.445159,-1.44865 -3.623677,-3.634871 -3.985602,-3.9978085 z m -28.997848,0 3.997809,3.9978085 H 5.7476436 L 1.9512506,9.9987965 Z m 35.650692,7.0007445 3.796392,3.997809 H 29.935914 c -1.956628,-1.958496 -2.115858,-2.112128 -3.997808,-3.997809 z m -28.649948,0 3.997809,3.997809 H 12.400486 L 8.6040926,16.999541 Z m 35.296686,7.000743 3.796393,3.997809 H 36.948865 C 36.251734,27.308338 34.577523,25.63169 32.944952,24.000284 Z m -28.295943,0 3.997808,3.997809 H 19.047225 l -3.796392,-3.997809 z m 32.092336,8.001722 c -0.686319,0.720293 -2.208802,2.317979 -3.8086,3.997809 H 32.969366 c 1.63107,-1.632235 3.309607,-3.308328 3.991706,-3.997809 z m -28.094528,0 -3.997808,3.997809 H 15.250833 l 3.796392,-3.997809 z m 21.429478,6.99464 c -1.885381,1.980915 -2.066326,2.183199 -3.796392,4.003912 H 25.968623 c 1.892682,-1.888944 2.046502,-2.042264 4.010015,-4.003912 z m -28.424117,0 -4.003912,4.003912 H 8.6040926 L 12.40659,38.996646 Z m 21.789586,7.000743 c -1.214142,1.282083 -3.808405,4.003913 -3.796394,4.003913 H 18.955673 c 0.363893,-0.362883 2.554266,-2.551664 4.010016,-4.003913 z m -28.790329,0 -4.003913,4.003913 H 1.9512506 l 3.802496,-4.003913 z" /></svg>
