<?xml version="1.0" encoding="UTF-8" standalone="no"?>
<svg
   width="19.19997"
   height="19.200001"
   viewBox="0 0 60.000003 60.000098"
   version="1.1"
   id="svg1"
   xml:space="preserve"
   xmlns="http://www.w3.org/2000/svg"
   xmlns:svg="http://www.w3.org/2000/svg"><defs
     id="defs1" /><path
     id="Unnamed"
     style="display:inline;fill:#000000;fill-opacity:1;stroke:none"
     d="m 19.047226,9.9987965 -3.796394,3.9978085 h 21.807896 c 1.445159,-1.44865 3.623677,-3.634871 3.985602,-3.9978085 z m 28.997848,0 -3.997809,3.9978085 H 54.252359 L 58.048752,9.9987965 Z M 12.394382,16.999541 8.5979898,20.99735 H 30.064089 c 1.956628,-1.958496 2.115858,-2.112128 3.997808,-3.997809 z m 28.649948,0 -3.997809,3.997809 H 47.599517 L 51.39591,16.999541 Z M 5.7476434,24.000284 1.9512506,27.998093 H 23.051138 c 0.697131,-0.689755 2.371342,-2.366403 4.003913,-3.997809 z m 28.2959436,0 -3.997808,3.997809 H 40.952778 L 44.74917,24.000284 Z M 1.9512506,32.002006 c 0.6863191,0.720293 2.2088019,2.317979 3.8085999,3.997809 H 27.030637 C 25.399567,34.36758 23.72103,32.691487 23.038931,32.002006 Z m 28.0945284,0 3.997808,3.997809 H 44.74917 l -3.796392,-3.997809 z m -21.4294782,6.99464 c 1.8853812,1.980915 2.0663262,2.183199 3.7963922,4.003912 H 34.03138 c -1.892682,-1.888944 -2.046502,-2.042264 -4.010015,-4.003912 z m 28.4241172,0 4.003912,4.003912 h 10.35158 l -3.802497,-4.003912 z m -21.789586,7.000743 c 1.214142,1.282083 3.808405,4.003913 3.796394,4.003913 H 41.04433 c -0.363893,-0.362883 -2.554266,-2.551664 -4.010016,-4.003913 z m 28.790329,0 4.003913,4.003913 h 10.003678 l -3.802496,-4.003913 z" /></svg>
