<svg xmlns="http://www.w3.org/2000/svg" xml:space="preserve" viewBox="0 -960 343.99999 344">
  <path d="M77.954856-940c0-6 2-10.83334 6-14.5 4-3.66667 8.66668-5.5 14-5.5 2.666674 0 5.166674.5 7.500004 1.5 2.33333.99999 4.5 2.5 6.5 4.5l145 145c3.33333 3.33333 5.66667 6.66667 7 10 1.33333 3.33333 2.41606 7.0217 2 11 .41606 3.9783-.66667 7.66667-2 11-1.33333 3.33333-3.66667 6.66667-7 10l-145 145c-2 2-4.16667 3.5-6.5 4.5s-4.83333 1.5-7.500004 1.5c-5.33332 0-10-1.83334-14-5.5-4-3.66666-6-8.50001-6-14.5z"/>
</svg>
