<svg xmlns="http://www.w3.org/2000/svg" viewBox="0 -960 800 800">
  <path d="m290.54726-160-15.92039-128q-12.93533-5-24.37811-12-11.44279-7-22.38806-15l-118.40796 50L0-455l102.48756-78q-.99502-7-.99502-13.5v-27q0-6.5.99502-13.5L0-665l109.45274-190 118.40796 50q10.94527-8 22.88557-15t23.8806-12l15.92039-128h218.90548l15.92039 128q12.93533 5 24.37811 12 11.44279 7 22.38806 15l118.40796-50L800-665l-102.48756 78q.99502 7 .99502 13.5v27q0 6.5-1.99005 13.5l102.48757 78-109.45274 190-117.41294-50q-10.94527 8-22.88557 15t-23.8806 12l-15.92039 128zm69.65174-80h78.60697l13.93035-106q30.84577-8 57.21393-23.5 26.36816-15.5 48.25871-37.5l98.50746 41 38.80597-68-85.57214-65q4.97512-14 6.96517-29.5 1.99005-15.5 1.99005-31.5t-1.99005-31.5q-1.99005-15.5-6.96517-29.5l85.57214-65-38.80597-68-98.50746 42q-21.89055-23-48.25871-38.5T452.73632-774L439.801-880h-78.60697l-13.93035 106q-30.84577 8-57.21393 23.5-26.36816 15.5-48.25871 37.5l-98.50746-41-38.80597 68 85.57214 64q-4.97512 15-6.96517 30-1.99005 15-1.99005 32 0 16 1.99005 31t6.96517 30l-85.57214 65 38.80597 68 98.50746-42q21.89055 23 48.25871 38.5t57.21393 23.5zm41.79105-180q57.71144 0 98.50746-41 40.79602-41 40.79602-99t-40.79602-99q-40.79602-41-98.50746-41-58.70647 0-99.00498 41-40.2985 41-40.2985 99t40.2985 99q40.29851 41 99.00498 41zM400-560Z"/>
</svg>
